<?xml version="1.0" encoding="utf-8"?>
<!-- Generator: Adobe Illustrator 27.5.0, SVG Export Plug-In . SVG Version: 6.00 Build 0)  -->
<svg version="1.1" id="Layer_1" xmlns="http://www.w3.org/2000/svg" xmlns:xlink="http://www.w3.org/1999/xlink" x="0px" y="0px"
	 viewBox="0 0 356.706 242.988" style="enable-background:new 0 0 356.706 242.988;" xml:space="preserve">
<g>
	<g>
		<rect x="28.615" y="58.856" style="fill:#DDC993;" width="299.476" height="171.625"/>
		<rect x="28.615" y="58.856" style="fill:#DDC993;" width="299.476" height="12.693"/>
		<rect x="85.339" y="58.856" style="fill:#DDC993;" width="185.283" height="171.625"/>
		<rect x="28.615" y="58.856" style="fill:#BABECC;" width="299.476" height="6.375"/>
		<g>
			<polygon style="fill:#791B1F;" points="179.4,58.856 7.479,58.856 55.162,15.837 179.4,15.837 			"/>
			<polygon style="fill:#4A0000;" points="179.4,58.856 58.319,58.856 162.986,15.837 179.4,15.837 			"/>
			<polygon style="fill:#791B1F;" points="177.306,58.856 349.228,58.856 301.544,15.837 177.306,15.837 			"/>
			<polygon style="fill:#4A0000;" points="177.306,58.856 302.245,58.856 198.728,15.837 177.306,15.837 			"/>
		</g>
		<rect x="7.479" y="58.856" style="fill:#A7C1C4;" width="341.749" height="8.635"/>
		<g>
			<g>
				<rect x="90.691" y="53.718" style="fill:#F3EEB5;" width="175.323" height="176.764"/>
				<rect x="90.691" y="50.397" style="fill:#BABECC;" width="175.323" height="16.918"/>
				<polygon style="fill:#BF353C;" points="275.687,62.657 81.02,62.657 81.02,52.097 178.353,12.036 275.687,52.097 				"/>
				<rect x="81.02" y="52.749" style="fill:#E3F3EE;" width="194.667" height="9.908"/>
			</g>
		</g>
		<g>
			<circle style="fill:#FFFFFF;" cx="177.948" cy="52.839" r="19.07"/>
			<path style="fill:#7F838E;" d="M177.948,73.409c-11.343,0-20.57-9.229-20.57-20.57c0-11.344,9.227-20.57,20.57-20.57
				c11.342,0,20.57,9.226,20.57,20.57C198.519,64.181,189.291,73.409,177.948,73.409z M177.948,35.269
				c-9.689,0-17.57,7.881-17.57,17.57c0,9.688,7.882,17.57,17.57,17.57c9.688,0,17.57-7.883,17.57-17.57
				C195.519,43.149,187.637,35.269,177.948,35.269z"/>
		</g>
		<path style="fill:#35383F;" d="M177.949,54.339c-0.829,0-1.5-0.672-1.5-1.5V40.063c0-0.828,0.671-1.5,1.5-1.5
			c0.829,0,1.5,0.672,1.5,1.5v12.775C179.449,53.667,178.778,54.339,177.949,54.339z"/>
		<path style="fill:#35383F;" d="M170.731,59.491c-0.464,0-0.922-0.215-1.215-0.617c-0.487-0.672-0.338-1.609,0.333-2.096
			l7.22-5.244c0.671-0.486,1.609-0.336,2.095,0.332c0.487,0.672,0.338,1.609-0.333,2.096l-7.22,5.244
			C171.345,59.399,171.036,59.491,170.731,59.491z"/>
		<path style="fill:#7F838E;" d="M179.721,52.839c0,0.979-0.793,1.771-1.771,1.771c-0.979,0-1.772-0.793-1.772-1.771
			s0.794-1.774,1.772-1.774C178.928,51.065,179.721,51.86,179.721,52.839z"/>
	</g>
	<g>
		<g>
			<g>
				<rect x="217.564" y="79.042" style="fill:#554B3F;" width="27.658" height="35.029"/>
			</g>
			<g>
				<g>
					<rect x="219.665" y="81.544" style="fill:#469FBB;" width="10.685" height="30.025"/>
					<path style="fill:#FFFFFF;" d="M230.85,112.069h-11.685V81.044h11.685V112.069z M220.165,111.069h9.685V82.044h-9.685V111.069z
						"/>
				</g>
				<g>
					<rect x="232.263" y="81.544" style="fill:#469FBB;" width="10.685" height="30.025"/>
					<path style="fill:#FFFFFF;" d="M243.447,112.069h-11.685V81.044h11.685V112.069z M232.763,111.069h9.685V82.044h-9.685V111.069
						z"/>
				</g>
			</g>
			<g>
				<g>
					<rect x="219.665" y="81.544" style="fill:#469FBB;" width="10.685" height="14.504"/>
					<path style="fill:#FFFFFF;" d="M230.85,96.548h-11.685V81.044h11.685V96.548z M220.165,95.548h9.685V82.044h-9.685V95.548z"/>
				</g>
				<g>
					<rect x="232.263" y="81.544" style="fill:#469FBB;" width="10.685" height="14.504"/>
					<path style="fill:#FFFFFF;" d="M243.447,96.548h-11.685V81.044h11.685V96.548z M232.763,95.548h9.685V82.044h-9.685V95.548z"/>
				</g>
			</g>
		</g>
		<g>
			<g>
				<rect x="114.273" y="79.042" style="fill:#554B3F;" width="27.657" height="35.029"/>
			</g>
			<g>
				<g>
					<rect x="116.374" y="81.544" style="fill:#469FBB;" width="10.684" height="30.025"/>
					<path style="fill:#FFFFFF;" d="M127.559,112.069h-11.685V81.044h11.685V112.069z M116.874,111.069h9.685V82.044h-9.685V111.069
						z"/>
				</g>
				<g>
					<rect x="128.972" y="81.544" style="fill:#469FBB;" width="10.685" height="30.025"/>
					<path style="fill:#FFFFFF;" d="M140.156,112.069h-11.685V81.044h11.685V112.069z M129.472,111.069h9.685V82.044h-9.685V111.069
						z"/>
				</g>
			</g>
			<g>
				<g>
					<rect x="116.374" y="81.544" style="fill:#469FBB;" width="10.684" height="14.504"/>
					<path style="fill:#FFFFFF;" d="M127.559,96.548h-11.685V81.044h11.685V96.548z M116.874,95.548h9.685V82.044h-9.685V95.548z"/>
				</g>
				<g>
					<rect x="128.972" y="81.544" style="fill:#469FBB;" width="10.685" height="14.504"/>
					<path style="fill:#FFFFFF;" d="M140.156,96.548h-11.685V81.044h11.685V96.548z M129.472,95.548h9.685V82.044h-9.685V95.548z"/>
				</g>
			</g>
		</g>
	</g>
	<g>
		<g>
			<g>
				<rect x="280.409" y="90.05" style="fill:#554B3F;" width="30.137" height="38.17"/>
			</g>
			<g>
				<g>
					<rect x="282.698" y="92.776" style="fill:#469FBB;" width="11.642" height="32.719"/>
					<path style="fill:#FFFFFF;" d="M294.84,125.995h-12.642V92.276h12.642V125.995z M283.198,124.995h10.642V93.276h-10.642
						V124.995z"/>
				</g>
				<g>
					<rect x="296.425" y="92.776" style="fill:#469FBB;" width="11.641" height="32.719"/>
					<path style="fill:#FFFFFF;" d="M308.565,125.995h-12.641V92.276h12.641V125.995z M296.925,124.995h10.641V93.276h-10.641
						V124.995z"/>
				</g>
			</g>
			<g>
				<g>
					<rect x="282.698" y="92.776" style="fill:#469FBB;" width="11.642" height="15.805"/>
					<path style="fill:#FFFFFF;" d="M294.84,109.081h-12.642V92.276h12.642V109.081z M283.198,108.081h10.642V93.276h-10.642
						V108.081z"/>
				</g>
				<g>
					<rect x="296.425" y="92.776" style="fill:#469FBB;" width="11.641" height="15.805"/>
					<path style="fill:#FFFFFF;" d="M308.565,109.081h-12.641V92.276h12.641V109.081z M296.925,108.081h10.641V93.276h-10.641
						V108.081z"/>
				</g>
			</g>
		</g>
		<g>
			<g>
				<rect x="44.389" y="90.05" style="fill:#554B3F;" width="30.137" height="38.17"/>
			</g>
			<g>
				<g>
					<rect x="46.678" y="92.776" style="fill:#469FBB;" width="11.642" height="32.719"/>
					<path style="fill:#FFFFFF;" d="M58.819,125.995H46.178V92.276h12.642V125.995z M47.178,124.995h10.642V93.276H47.178V124.995z"
						/>
				</g>
				<g>
					<rect x="60.405" y="92.776" style="fill:#469FBB;" width="11.641" height="32.719"/>
					<path style="fill:#FFFFFF;" d="M72.546,125.995H59.905V92.276h12.641V125.995z M60.905,124.995h10.641V93.276H60.905V124.995z"
						/>
				</g>
			</g>
			<g>
				<g>
					<rect x="46.678" y="92.776" style="fill:#469FBB;" width="11.642" height="15.805"/>
					<path style="fill:#FFFFFF;" d="M58.819,109.081H46.178V92.276h12.642V109.081z M47.178,108.081h10.642V93.276H47.178V108.081z"
						/>
				</g>
				<g>
					<rect x="60.405" y="92.776" style="fill:#469FBB;" width="11.641" height="15.805"/>
					<path style="fill:#FFFFFF;" d="M72.546,109.081H59.905V92.276h12.641V109.081z M60.905,108.081h10.641V93.276H60.905V108.081z"
						/>
				</g>
			</g>
		</g>
	</g>
	<g>
		<g>
			<g>
				<rect x="280.409" y="168.038" style="fill:#554B3F;" width="30.137" height="38.17"/>
			</g>
			<g>
				<g>
					<rect x="282.698" y="170.765" style="fill:#469FBB;" width="11.642" height="32.719"/>
					<path style="fill:#FFFFFF;" d="M294.84,203.983h-12.642v-33.719h12.642V203.983z M283.198,202.983h10.642v-31.719h-10.642
						V202.983z"/>
				</g>
				<g>
					<rect x="296.425" y="170.765" style="fill:#469FBB;" width="11.641" height="32.719"/>
					<path style="fill:#FFFFFF;" d="M308.565,203.983h-12.641v-33.719h12.641V203.983z M296.925,202.983h10.641v-31.719h-10.641
						V202.983z"/>
				</g>
			</g>
			<g>
				<g>
					<rect x="282.698" y="170.765" style="fill:#469FBB;" width="11.642" height="15.805"/>
					<path style="fill:#FFFFFF;" d="M294.84,187.069h-12.642v-16.805h12.642V187.069z M283.198,186.069h10.642v-14.805h-10.642
						V186.069z"/>
				</g>
				<g>
					<rect x="296.425" y="170.765" style="fill:#469FBB;" width="11.641" height="15.805"/>
					<path style="fill:#FFFFFF;" d="M308.565,187.069h-12.641v-16.805h12.641V187.069z M296.925,186.069h10.641v-14.805h-10.641
						V186.069z"/>
				</g>
			</g>
		</g>
		<g>
			<g>
				<rect x="44.389" y="168.038" style="fill:#554B3F;" width="30.137" height="38.17"/>
			</g>
			<g>
				<g>
					<rect x="46.678" y="170.765" style="fill:#469FBB;" width="11.642" height="32.719"/>
					<path style="fill:#FFFFFF;" d="M58.819,203.983H46.178v-33.719h12.642V203.983z M47.178,202.983h10.642v-31.719H47.178V202.983
						z"/>
				</g>
				<g>
					<rect x="60.405" y="170.765" style="fill:#469FBB;" width="11.641" height="32.719"/>
					<path style="fill:#FFFFFF;" d="M72.546,203.983H59.905v-33.719h12.641V203.983z M60.905,202.983h10.641v-31.719H60.905V202.983
						z"/>
				</g>
			</g>
			<g>
				<g>
					<rect x="46.678" y="170.765" style="fill:#469FBB;" width="11.642" height="15.805"/>
					<path style="fill:#FFFFFF;" d="M58.819,187.069H46.178v-16.805h12.642V187.069z M47.178,186.069h10.642v-14.805H47.178V186.069
						z"/>
				</g>
				<g>
					<rect x="60.405" y="170.765" style="fill:#469FBB;" width="11.641" height="15.805"/>
					<path style="fill:#FFFFFF;" d="M72.546,187.069H59.905v-16.805h12.641V187.069z M60.905,186.069h10.641v-14.805H60.905V186.069
						z"/>
				</g>
			</g>
		</g>
	</g>
	<g>
		<g>
			<g>
				<rect x="218.997" y="168.038" style="fill:#554B3F;" width="30.137" height="38.17"/>
			</g>
			<g>
				<g>
					<rect x="221.286" y="170.765" style="fill:#469FBB;" width="11.643" height="32.719"/>
					<path style="fill:#FFFFFF;" d="M233.429,203.983h-12.643v-33.719h12.643V203.983z M221.786,202.983h10.643v-31.719h-10.643
						V202.983z"/>
				</g>
				<g>
					<rect x="235.013" y="170.765" style="fill:#469FBB;" width="11.642" height="32.719"/>
					<path style="fill:#FFFFFF;" d="M247.154,203.983h-12.642v-33.719h12.642V203.983z M235.513,202.983h10.642v-31.719h-10.642
						V202.983z"/>
				</g>
			</g>
			<g>
				<g>
					<rect x="221.286" y="170.765" style="fill:#469FBB;" width="11.643" height="15.805"/>
					<path style="fill:#FFFFFF;" d="M233.429,187.069h-12.643v-16.805h12.643V187.069z M221.786,186.069h10.643v-14.805h-10.643
						V186.069z"/>
				</g>
				<g>
					<rect x="235.013" y="170.765" style="fill:#469FBB;" width="11.642" height="15.805"/>
					<path style="fill:#FFFFFF;" d="M247.154,187.069h-12.642v-16.805h12.642V187.069z M235.513,186.069h10.642v-14.805h-10.642
						V186.069z"/>
				</g>
			</g>
		</g>
		<g>
			<g>
				<rect x="110.361" y="164.304" style="fill:#554B3F;" width="30.139" height="38.287"/>
			</g>
			<g>
				<g>
					<rect x="112.65" y="167.038" style="fill:#469FBB;" width="11.643" height="32.818"/>
					<path style="fill:#FFFFFF;" d="M124.793,200.357H112.15v-33.818h12.643V200.357z M113.15,199.357h10.643v-31.818H113.15
						V199.357z"/>
				</g>
				<g>
					<rect x="126.377" y="167.038" style="fill:#469FBB;" width="11.643" height="32.818"/>
					<path style="fill:#FFFFFF;" d="M138.52,200.357h-12.643v-33.818h12.643V200.357z M126.877,199.357h10.643v-31.818h-10.643
						V199.357z"/>
				</g>
			</g>
			<g>
				<g>
					<rect x="112.65" y="167.038" style="fill:#469FBB;" width="11.643" height="15.854"/>
					<path style="fill:#FFFFFF;" d="M124.793,183.392H112.15v-16.854h12.643V183.392z M113.15,182.392h10.643v-14.854H113.15
						V182.392z"/>
				</g>
				<g>
					<rect x="126.377" y="167.038" style="fill:#469FBB;" width="11.643" height="15.854"/>
					<path style="fill:#FFFFFF;" d="M138.52,183.392h-12.643v-16.854h12.643V183.392z M126.877,182.392h10.643v-14.854h-10.643
						V182.392z"/>
				</g>
			</g>
		</g>
		<g>
			<g>
				<g>
					<rect x="152.592" y="160.686" style="fill:#554B3F;" width="50.556" height="64.225"/>
				</g>
				<g>
					<rect x="156.433" y="165.273" style="fill:#AD774F;" width="19.529" height="55.053"/>
					<rect x="179.46" y="165.273" style="fill:#AD774F;" width="19.528" height="55.053"/>
				</g>
			</g>
			<g>
				<rect x="136.842" y="218.427" style="fill:#8F8561;" width="85.812" height="6.484"/>
				<rect x="130.243" y="223.47" style="fill:#DDC993;" width="99.009" height="7.481"/>
			</g>
		</g>
	</g>
	<rect x="86.983" y="128.22" style="fill:#EEBD7D;" width="181.996" height="26.131"/>
	<g>
		<path style="fill:#997B50;" d="M133.241,147.966c0.587,0.652,1.305,1.227,2.156,1.723c0.851,0.496,1.829,0.744,2.936,0.744
			c1.271,0,2.287-0.297,3.048-0.893c0.76-0.596,1.14-1.449,1.14-2.564c0-1.09-0.35-1.9-1.047-2.43
			c-0.698-0.527-1.741-1.047-3.128-1.561l-1.066-0.445c-1.494-0.529-2.742-1.24-3.741-2.131c-1-0.893-1.499-2.072-1.499-3.543
			c0-1.496,0.576-2.684,1.727-3.563c1.152-0.879,2.6-1.318,4.343-1.318c1.338,0,2.454,0.199,3.345,0.6
			c0.893,0.402,1.71,0.976,2.454,1.729l-1.227,1.4c-0.537-0.496-1.163-0.943-1.878-1.346c-0.714-0.4-1.601-0.6-2.657-0.6
			c-1.131,0-2.075,0.268-2.831,0.805c-0.756,0.537-1.134,1.227-1.134,2.07c0,1.031,0.424,1.838,1.271,2.42
			c0.847,0.584,1.716,1.045,2.608,1.383l1.833,0.768c1.892,0.711,3.174,1.473,3.848,2.285c0.672,0.815,1.009,1.883,1.009,3.203
			c0,1.76-0.619,3.119-1.857,4.076c-1.24,0.959-2.764,1.438-4.572,1.438c-0.735,0-1.41-0.051-2.026-0.154
			c-0.615-0.104-1.193-0.267-1.734-0.49c-0.54-0.223-1.051-0.508-1.529-0.855c-0.479-0.346-0.946-0.764-1.4-1.25L133.241,147.966z"
			/>
		<path style="fill:#997B50;" d="M161.576,149.107c-0.652,0.885-1.447,1.623-2.385,2.217c-0.938,0.596-2.257,0.893-3.958,0.893
			c-2.436,0-4.374-0.947-5.811-2.842c-1.438-1.896-2.156-4.344-2.156-7.342c0-2.783,0.689-5.154,2.069-7.111
			c1.379-1.957,3.415-2.936,6.107-2.936c1.124,0,2.114,0.156,2.974,0.469c0.859,0.314,1.677,0.889,2.453,1.723l-1.326,1.387
			c-0.578-0.594-1.216-1.041-1.914-1.344c-0.698-0.301-1.463-0.451-2.298-0.451c-1.843,0-3.277,0.785-4.306,2.354
			c-1.028,1.57-1.542,3.432-1.542,5.588c0,2.809,0.58,4.965,1.74,6.467c1.16,1.504,2.475,2.256,3.946,2.256
			c1.429,0,2.466-0.225,3.11-0.67c0.644-0.445,1.233-1.045,1.771-1.797L161.576,149.107z"/>
		<path style="fill:#997B50;" d="M164.339,132.491h2.107v8.699h9.614v-8.699h2.107v19.416h-2.107V142.8h-9.614v9.107h-2.107V132.491
			z"/>
		<path style="fill:#997B50;" d="M190.195,152.216c-2.741,0-4.855-0.949-6.337-2.85c-1.482-1.9-2.224-4.414-2.224-7.545
			c0-2.824,0.836-5.17,2.51-7.037c1.671-1.867,3.738-2.799,6.2-2.799c2.684,0,4.762,0.932,6.231,2.799
			c1.471,1.867,2.206,4.332,2.206,7.396c0,2.85-0.814,5.234-2.441,7.154C194.714,151.255,192.666,152.216,190.195,152.216z
			 M190.308,150.433c1.61,0,3.053-0.744,4.33-2.23c1.276-1.486,1.914-3.68,1.914-6.578c0-1.851-0.5-3.623-1.499-5.316
			c-1-1.693-2.553-2.539-4.659-2.539c-2.031,0-3.627,0.758-4.788,2.273c-1.16,1.516-1.74,3.445-1.74,5.791
			c0,2.76,0.611,4.883,1.833,6.369C186.921,149.689,188.457,150.433,190.308,150.433z"/>
		<path style="fill:#997B50;" d="M210.564,152.216c-2.743,0-4.855-0.949-6.337-2.85c-1.483-1.9-2.225-4.414-2.225-7.545
			c0-2.824,0.837-5.17,2.509-7.037c1.672-1.867,3.739-2.799,6.201-2.799c2.684,0,4.761,0.932,6.231,2.799
			c1.47,1.867,2.206,4.332,2.206,7.396c0,2.85-0.813,5.234-2.441,7.154C215.081,151.255,213.034,152.216,210.564,152.216z
			 M210.676,150.433c1.61,0,3.054-0.744,4.329-2.23c1.277-1.486,1.915-3.68,1.915-6.578c0-1.851-0.501-3.623-1.499-5.316
			c-1-1.693-2.553-2.539-4.658-2.539c-2.032,0-3.629,0.758-4.789,2.273c-1.16,1.516-1.74,3.445-1.74,5.791
			c0,2.76,0.611,4.883,1.833,6.369C207.289,149.689,208.825,150.433,210.676,150.433z"/>
		<path style="fill:#997B50;" d="M233.472,151.907h-10.852v-19.416h2.106v17.705h8.746V151.907z"/>
	</g>
	<g>
		<path style="fill:#FFFFFF;" d="M133.241,146.776c0.587,0.652,1.305,1.229,2.156,1.723c0.851,0.496,1.829,0.744,2.936,0.744
			c1.271,0,2.287-0.297,3.048-0.893c0.76-0.594,1.14-1.449,1.14-2.564c0-1.09-0.35-1.898-1.047-2.428
			c-0.698-0.529-1.741-1.049-3.128-1.563l-1.066-0.445c-1.494-0.529-2.742-1.24-3.741-2.131c-1-0.893-1.499-2.072-1.499-3.543
			c0-1.496,0.576-2.684,1.727-3.563c1.152-0.879,2.6-1.318,4.343-1.318c1.338,0,2.454,0.199,3.345,0.602
			c0.893,0.4,1.71,0.975,2.454,1.726l-1.227,1.4c-0.537-0.496-1.163-0.943-1.878-1.346c-0.714-0.4-1.601-0.6-2.657-0.6
			c-1.131,0-2.075,0.268-2.831,0.805c-0.756,0.537-1.134,1.227-1.134,2.07c0,1.033,0.424,1.838,1.271,2.422
			c0.847,0.582,1.716,1.043,2.608,1.381l1.833,0.768c1.892,0.711,3.174,1.473,3.848,2.287c0.672,0.813,1.009,1.881,1.009,3.203
			c0,1.758-0.619,3.117-1.857,4.076c-1.24,0.957-2.764,1.436-4.572,1.436c-0.735,0-1.41-0.051-2.026-0.154
			c-0.615-0.104-1.193-0.268-1.734-0.488c-0.54-0.225-1.051-0.508-1.529-0.855c-0.479-0.348-0.946-0.764-1.4-1.252L133.241,146.776z
			"/>
		<path style="fill:#FFFFFF;" d="M161.576,147.917c-0.652,0.885-1.447,1.623-2.385,2.219c-0.938,0.594-2.257,0.891-3.958,0.891
			c-2.436,0-4.374-0.947-5.811-2.842c-1.438-1.896-2.156-4.344-2.156-7.342c0-2.783,0.689-5.154,2.069-7.111
			c1.379-1.957,3.415-2.936,6.107-2.936c1.124,0,2.114,0.156,2.974,0.469c0.859,0.314,1.677,0.889,2.453,1.723l-1.326,1.389
			c-0.578-0.596-1.216-1.043-1.914-1.344c-0.698-0.303-1.463-0.453-2.298-0.453c-1.843,0-3.277,0.785-4.306,2.354
			c-1.028,1.57-1.542,3.432-1.542,5.588c0,2.809,0.58,4.965,1.74,6.467c1.16,1.504,2.475,2.256,3.946,2.256
			c1.429,0,2.466-0.225,3.11-0.67c0.644-0.445,1.233-1.045,1.771-1.797L161.576,147.917z"/>
		<path style="fill:#FFFFFF;" d="M164.339,131.302h2.107v8.699h9.614v-8.699h2.107v19.416h-2.107v-9.107h-9.614v9.107h-2.107
			V131.302z"/>
		<path style="fill:#FFFFFF;" d="M190.195,151.026c-2.741,0-4.855-0.949-6.337-2.85c-1.482-1.898-2.224-4.414-2.224-7.545
			c0-2.824,0.836-5.17,2.51-7.037c1.671-1.865,3.738-2.799,6.2-2.799c2.684,0,4.762,0.934,6.231,2.799
			c1.471,1.867,2.206,4.332,2.206,7.396c0,2.85-0.814,5.234-2.441,7.154C194.714,150.065,192.666,151.026,190.195,151.026z
			 M190.308,149.243c1.61,0,3.053-0.744,4.33-2.23c1.276-1.486,1.914-3.68,1.914-6.578c0-1.852-0.5-3.623-1.499-5.316
			c-1-1.693-2.553-2.539-4.659-2.539c-2.031,0-3.627,0.758-4.788,2.273c-1.16,1.516-1.74,3.445-1.74,5.791
			c0,2.76,0.611,4.883,1.833,6.369C186.921,148.499,188.457,149.243,190.308,149.243z"/>
		<path style="fill:#FFFFFF;" d="M210.564,151.026c-2.743,0-4.855-0.949-6.337-2.85c-1.483-1.898-2.225-4.414-2.225-7.545
			c0-2.824,0.837-5.17,2.509-7.037c1.672-1.865,3.739-2.799,6.201-2.799c2.684,0,4.761,0.934,6.231,2.799
			c1.47,1.867,2.206,4.332,2.206,7.396c0,2.85-0.813,5.234-2.441,7.154C215.081,150.065,213.034,151.026,210.564,151.026z
			 M210.676,149.243c1.61,0,3.054-0.744,4.329-2.23c1.277-1.486,1.915-3.68,1.915-6.578c0-1.852-0.501-3.623-1.499-5.316
			c-1-1.693-2.553-2.539-4.658-2.539c-2.032,0-3.629,0.758-4.789,2.273c-1.16,1.516-1.74,3.445-1.74,5.791
			c0,2.76,0.611,4.883,1.833,6.369C207.289,148.499,208.825,149.243,210.676,149.243z"/>
		<path style="fill:#FFFFFF;" d="M233.472,150.718h-10.852v-19.416h2.106v17.705h8.746V150.718z"/>
	</g>
	<g>
		<g>
			<g>
				<rect x="303.684" y="145.749" style="fill:#F3EEB5;" width="6.441" height="3.377"/>
				<rect x="300.464" y="149.761" style="fill:#F3EEB5;" width="6.441" height="3.375"/>
			</g>
			<g>
				<rect x="314.58" y="149.761" style="fill:#F3EEB5;" width="6.441" height="3.375"/>
				<rect x="311.359" y="153.769" style="fill:#F3EEB5;" width="6.44" height="3.377"/>
				<rect x="318.542" y="153.769" style="fill:#F3EEB5;" width="6.44" height="3.377"/>
			</g>
		</g>
		<g>
			<g>
				<rect x="278.351" y="157.778" style="fill:#F3EEB5;" width="6.441" height="3.377"/>
				<rect x="275.131" y="153.769" style="fill:#F3EEB5;" width="6.44" height="3.377"/>
			</g>
			<g>
				<rect x="289.247" y="153.769" style="fill:#F3EEB5;" width="6.441" height="3.377"/>
				<rect x="286.027" y="149.761" style="fill:#F3EEB5;" width="6.44" height="3.375"/>
			</g>
		</g>
	</g>
	<g>
		<g>
			<g>
				<rect x="61.947" y="211.028" style="fill:#F3EEB5;" width="6.441" height="3.377"/>
				<rect x="58.726" y="215.038" style="fill:#F3EEB5;" width="6.442" height="3.377"/>
			</g>
			<g>
				<rect x="72.843" y="215.038" style="fill:#F3EEB5;" width="6.441" height="3.377"/>
				<rect x="69.623" y="219.048" style="fill:#F3EEB5;" width="6.44" height="3.375"/>
				<rect x="76.805" y="219.048" style="fill:#F3EEB5;" width="6.44" height="3.375"/>
			</g>
		</g>
		<g>
			<g>
				<rect x="36.614" y="223.058" style="fill:#F3EEB5;" width="6.441" height="3.375"/>
				<rect x="33.394" y="219.048" style="fill:#F3EEB5;" width="6.441" height="3.375"/>
			</g>
			<g>
				<rect x="47.511" y="219.048" style="fill:#F3EEB5;" width="6.44" height="3.375"/>
				<rect x="44.29" y="215.038" style="fill:#F3EEB5;" width="6.441" height="3.377"/>
			</g>
		</g>
	</g>
	<g>
		<g>
			<g>
				<rect x="125.388" y="208.286" style="fill:#DDC993;" width="6.439" height="3.375"/>
				<rect x="122.166" y="212.296" style="fill:#DDC993;" width="6.441" height="3.375"/>
			</g>
			<g>
				<rect x="136.283" y="212.296" style="fill:#DDC993;" width="6.442" height="3.375"/>
				<rect x="133.063" y="216.306" style="fill:#DDC993;" width="6.441" height="3.375"/>
				<rect x="140.245" y="216.306" style="fill:#DDC993;" width="6.441" height="3.375"/>
			</g>
		</g>
		<g>
			<g>
				<rect x="100.054" y="220.314" style="fill:#DDC993;" width="6.441" height="3.377"/>
				<rect x="96.834" y="216.306" style="fill:#DDC993;" width="6.44" height="3.375"/>
			</g>
			<g>
				<rect x="110.95" y="216.306" style="fill:#DDC993;" width="6.441" height="3.375"/>
				<rect x="107.73" y="212.296" style="fill:#DDC993;" width="6.44" height="3.375"/>
			</g>
		</g>
	</g>
	<g>
		<g>
			<g>
				<rect x="227.58" y="208.286" style="fill:#DDC993;" width="6.441" height="3.375"/>
				<rect x="230.802" y="212.296" style="fill:#DDC993;" width="6.44" height="3.375"/>
			</g>
			<g>
				<rect x="216.685" y="212.296" style="fill:#DDC993;" width="6.439" height="3.375"/>
				<rect x="219.904" y="216.306" style="fill:#DDC993;" width="6.441" height="3.375"/>
				<rect x="212.723" y="216.306" style="fill:#DDC993;" width="6.441" height="3.375"/>
			</g>
		</g>
		<g>
			<g>
				<rect x="252.913" y="220.314" style="fill:#DDC993;" width="6.441" height="3.377"/>
				<rect x="256.133" y="216.306" style="fill:#DDC993;" width="6.441" height="3.375"/>
			</g>
			<g>
				<rect x="242.017" y="216.306" style="fill:#DDC993;" width="6.441" height="3.375"/>
				<rect x="245.237" y="212.296" style="fill:#DDC993;" width="6.442" height="3.375"/>
			</g>
		</g>
	</g>
</g>
</svg>
